<?xml version="1.0" encoding="UTF-8"?>
<svg xmlns="http://www.w3.org/2000/svg" version="1.1" viewBox="0 0 115.74272510665469 117.94733922499586" width="115.74272510665469" height="117.94733922499586" style="background: transparent;"><!-- svg-source:excalidraw --><metadata/><defs><style class="style-fonts">
</style></defs><g stroke-linecap="round"><g transform="translate(69.51034123682575 10) rotate(0 -27.474969000695637 27.45719894208912)" fill-rule="evenodd"><path d="M0 0 L-54.92 0 L-54.92 0 L-58.16 1.34 L-59.51 4.57 L-59.51 50.35 L-59.51 50.35 L-58.16 53.58 L-54.92 54.91 L-0.01 54.91 L-0.01 54.91 L3.22 53.58 L4.56 50.35 L4.56 4.57 L4.56 4.57 L3.22 1.34 L0 0 L0 0" stroke="none" stroke-width="0" fill="#38d9a9" fill-rule="evenodd"/><path d="M0 0 C-16.17 0, -32.34 0, -54.92 0 M0 0 C-17.62 0, -35.24 0, -54.92 0 M-54.92 0 C-54.92 0, -54.92 0, -54.92 0 M-54.92 0 C-54.92 0, -54.92 0, -54.92 0 M-54.92 0 C-55.77 0.35, -56.62 0.7, -58.16 1.34 M-54.92 0 C-56.05 0.47, -57.18 0.93, -58.16 1.34 M-58.16 1.34 C-58.53 2.22, -58.89 3.09, -59.51 4.57 M-58.16 1.34 C-58.56 2.3, -58.96 3.26, -59.51 4.57 M-59.51 4.57 C-59.51 14.68, -59.51 24.8, -59.51 50.35 M-59.51 4.57 C-59.51 20.2, -59.51 35.84, -59.51 50.35 M-59.51 50.35 C-59.51 50.35, -59.51 50.35, -59.51 50.35 M-59.51 50.35 C-59.51 50.35, -59.51 50.35, -59.51 50.35 M-59.51 50.35 C-58.99 51.6, -58.46 52.85, -58.16 53.58 M-59.51 50.35 C-59.23 51.03, -58.94 51.7, -58.16 53.58 M-58.16 53.58 C-57.32 53.93, -56.47 54.28, -54.92 54.91 M-58.16 53.58 C-57.05 54.03, -55.95 54.49, -54.92 54.91 M-54.92 54.91 C-36.78 54.91, -18.63 54.91, -0.01 54.91 M-54.92 54.91 C-36.27 54.91, -17.63 54.91, -0.01 54.91 M-0.01 54.91 C-0.01 54.91, -0.01 54.91, -0.01 54.91 M-0.01 54.91 C-0.01 54.91, -0.01 54.91, -0.01 54.91 M-0.01 54.91 C0.85 54.56, 1.7 54.2, 3.22 53.58 M-0.01 54.91 C0.94 54.52, 1.89 54.13, 3.22 53.58 M3.22 53.58 C3.74 52.33, 4.25 51.09, 4.56 50.35 M3.22 53.58 C3.72 52.38, 4.21 51.19, 4.56 50.35 M4.56 50.35 C4.56 34.08, 4.56 17.81, 4.56 4.57 M4.56 50.35 C4.56 36.14, 4.56 21.93, 4.56 4.57 M4.56 4.57 C4.56 4.57, 4.56 4.57, 4.56 4.57 M4.56 4.57 C4.56 4.57, 4.56 4.57, 4.56 4.57 M4.56 4.57 C4.27 3.87, 3.99 3.18, 3.22 1.34 M4.56 4.57 C4.28 3.9, 4.01 3.23, 3.22 1.34 M3.22 1.34 C2.39 0.99, 1.56 0.65, 0 0 M3.22 1.34 C1.94 0.81, 0.67 0.28, 0 0 M0 0 C0 0, 0 0, 0 0 M0 0 C0 0, 0 0, 0 0 M0 0 C0 0, 0 0, 0 0 M0 0 C0 0, 0 0, 0 0" stroke="#00000000" stroke-width="2" fill="none"/></g></g><mask/><g stroke-linecap="round"><g transform="translate(31.774421474440715 13.435111397105857) rotate(0 -0.008884676288516857 2.2920484411265534)" fill-rule="evenodd"><path d="M0 0 L0 0 L1.61 0.67 L2.27 2.29 L1.61 3.92 L0 4.58 L-1.62 3.92 L-2.29 2.29 L-1.62 0.67 L0 0 L0 0" stroke="none" stroke-width="0" fill="#FFFFFF" fill-rule="evenodd"/><path d="M0 0 C0 0, 0 0, 0 0 M0 0 C0 0, 0 0, 0 0 M0 0 C0.38 0.16, 0.75 0.31, 1.61 0.67 M0 0 C0.54 0.23, 1.09 0.45, 1.61 0.67 M1.61 0.67 C1.84 1.22, 2.06 1.76, 2.27 2.29 M1.61 0.67 C1.87 1.3, 2.13 1.93, 2.27 2.29 M2.27 2.29 C2.05 2.84, 1.83 3.38, 1.61 3.92 M2.27 2.29 C2.06 2.81, 1.86 3.32, 1.61 3.92 M1.61 3.92 C1.23 4.07, 0.85 4.23, 0 4.58 M1.61 3.92 C1.14 4.11, 0.66 4.31, 0 4.58 M0 4.58 C-0.34 4.44, -0.69 4.3, -1.62 3.92 M0 4.58 C-0.33 4.45, -0.66 4.31, -1.62 3.92 M-1.62 3.92 C-1.77 3.55, -1.92 3.19, -2.29 2.29 M-1.62 3.92 C-1.79 3.5, -1.97 3.08, -2.29 2.29 M-2.29 2.29 C-2.06 1.74, -1.84 1.19, -1.62 0.67 M-2.29 2.29 C-2.06 1.73, -1.83 1.17, -1.62 0.67 M-1.62 0.67 C-1.04 0.43, -0.46 0.19, 0 0 M-1.62 0.67 C-1.21 0.5, -0.81 0.33, 0 0 M0 0 C0 0, 0 0, 0 0 M0 0 C0 0, 0 0, 0 0 M0 0 C0 0, 0 0, 0 0 M0 0 C0 0, 0 0, 0 0" stroke="#00000000" stroke-width="2" fill="none"/></g></g><mask/><g stroke-linecap="round"><g transform="translate(24.767978744298944 13.435111397105857) rotate(0 0 2.2920484411265534)" fill-rule="evenodd"><path d="M0 0 L0 0 L1.62 0.67 L2.29 2.29 L1.62 3.92 L0 4.58 L-1.62 3.92 L-2.29 2.29 L-1.62 0.67 L0 0 L0 0" stroke="none" stroke-width="0" fill="#FFFFFF" fill-rule="evenodd"/><path d="M0 0 C0 0, 0 0, 0 0 M0 0 C0 0, 0 0, 0 0 M0 0 C0.36 0.15, 0.73 0.3, 1.62 0.67 M0 0 C0.45 0.18, 0.9 0.37, 1.62 0.67 M1.62 0.67 C1.83 1.17, 2.04 1.67, 2.29 2.29 M1.62 0.67 C1.88 1.3, 2.14 1.93, 2.29 2.29 M2.29 2.29 C2.09 2.77, 1.9 3.26, 1.62 3.92 M2.29 2.29 C2.14 2.67, 1.98 3.04, 1.62 3.92 M1.62 3.92 C1.07 4.15, 0.51 4.37, 0 4.58 M1.62 3.92 C1.16 4.1, 0.71 4.29, 0 4.58 M0 4.58 C-0.44 4.4, -0.89 4.22, -1.62 3.92 M0 4.58 C-0.61 4.33, -1.23 4.08, -1.62 3.92 M-1.62 3.92 C-1.83 3.41, -2.04 2.91, -2.29 2.29 M-1.62 3.92 C-1.78 3.52, -1.95 3.12, -2.29 2.29 M-2.29 2.29 C-2.1 1.84, -1.92 1.39, -1.62 0.67 M-2.29 2.29 C-2.08 1.78, -1.87 1.27, -1.62 0.67 M-1.62 0.67 C-1.06 0.44, -0.51 0.21, 0 0 M-1.62 0.67 C-1.18 0.49, -0.74 0.3, 0 0 M0 0 C0 0, 0 0, 0 0 M0 0 C0 0, 0 0, 0 0 M0 0 C0 0, 0 0, 0 0 M0 0 C0 0, 0 0, 0 0" stroke="#00000000" stroke-width="2" fill="none"/></g></g><mask/><g stroke-linecap="round"><g transform="translate(17.903678832269634 13.435111397105857) rotate(0 -0.002961264583746015 2.2920484411265534)" fill-rule="evenodd"><path d="M0 0 L0 0 L1.61 0.67 L2.28 2.29 L1.61 3.92 L0 4.58 L-1.62 3.92 L-2.29 2.29 L-1.61 0.67 L0 0 L0 0" stroke="none" stroke-width="0" fill="#FFFFFF" fill-rule="evenodd"/><path d="M0 0 C0 0, 0 0, 0 0 M0 0 C0 0, 0 0, 0 0 M0 0 C0.59 0.25, 1.18 0.49, 1.61 0.67 M0 0 C0.33 0.14, 0.65 0.27, 1.61 0.67 M1.61 0.67 C1.87 1.31, 2.14 1.94, 2.28 2.29 M1.61 0.67 C1.87 1.3, 2.13 1.93, 2.28 2.29 M2.28 2.29 C2.08 2.78, 1.88 3.27, 1.61 3.92 M2.28 2.29 C2.09 2.74, 1.91 3.19, 1.61 3.92 M1.61 3.92 C1.01 4.16, 0.41 4.41, 0 4.58 M1.61 3.92 C1.07 4.14, 0.52 4.37, 0 4.58 M0 4.58 C-0.58 4.34, -1.17 4.1, -1.62 3.92 M0 4.58 C-0.55 4.36, -1.11 4.13, -1.62 3.92 M-1.62 3.92 C-1.83 3.41, -2.03 2.9, -2.29 2.29 M-1.62 3.92 C-1.88 3.27, -2.15 2.63, -2.29 2.29 M-2.29 2.29 C-2.09 1.82, -1.9 1.35, -1.61 0.67 M-2.29 2.29 C-2.11 1.86, -1.93 1.43, -1.61 0.67 M-1.61 0.67 C-0.98 0.41, -0.35 0.15, 0 0 M-1.61 0.67 C-1.28 0.53, -0.95 0.39, 0 0 M0 0 C0 0, 0 0, 0 0 M0 0 C0 0, 0 0, 0 0 M0 0 C0 0, 0 0, 0 0 M0 0 C0 0, 0 0, 0 0" stroke="#00000000" stroke-width="2" fill="none"/></g></g><mask/><g stroke-linecap="round"><g transform="translate(69.39481249576556 60.35398900050677) rotate(0 -27.460161089210033 -19.429105986441414)" fill-rule="evenodd"><path d="M0 0 L-54.92 0 L-54.92 -38.86 L-0.01 -38.86 L-0.01 0 L0 0 L0 0" stroke="none" stroke-width="0" fill="#FFFFFF" fill-rule="evenodd"/><path d="M0 0 C-17.08 0, -34.15 0, -54.92 0 M0 0 C-14.2 0, -28.41 0, -54.92 0 M-54.92 0 C-54.92 -10.03, -54.92 -20.05, -54.92 -38.86 M-54.92 0 C-54.92 -14.14, -54.92 -28.29, -54.92 -38.86 M-54.92 -38.86 C-39.64 -38.86, -24.37 -38.86, -0.01 -38.86 M-54.92 -38.86 C-35.07 -38.86, -15.22 -38.86, -0.01 -38.86 M-0.01 -38.86 C-0.01 -27.44, -0.01 -16.02, -0.01 0 M-0.01 -38.86 C-0.01 -24.83, -0.01 -10.8, -0.01 0 M-0.01 0 C0 0, 0 0, 0 0 M-0.01 0 C0 0, 0 0, 0 0 M0 0 C0 0, 0 0, 0 0 M0 0 C0 0, 0 0, 0 0 M0 0 C0 0, 0 0, 0 0 M0 0 C0 0, 0 0, 0 0" stroke="#00000000" stroke-width="2" fill="none"/></g></g><mask/><g stroke-linecap="round"><g transform="translate(69.39481249576556 16.917603027553014) rotate(0 -16.020648618200767 -1.1460240440559346)" fill-rule="evenodd"><path d="M0 0 L-32.04 0 L-32.04 -2.29 L0 -2.29 L0 0 L0 0" stroke="none" stroke-width="0" fill="#FFFFFF" fill-rule="evenodd"/><path d="M0 0 C-8.09 0, -16.18 0, -32.04 0 M0 0 C-11.65 0, -23.3 0, -32.04 0 M-32.04 0 C-32.04 -0.57, -32.04 -1.13, -32.04 -2.29 M-32.04 0 C-32.04 -0.84, -32.04 -1.69, -32.04 -2.29 M-32.04 -2.29 C-20.99 -2.29, -9.93 -2.29, 0 -2.29 M-32.04 -2.29 C-19.77 -2.29, -7.5 -2.29, 0 -2.29 M0 -2.29 C0 -1.53, 0 -0.76, 0 0 M0 -2.29 C0 -1.57, 0 -0.84, 0 0 M0 0 C0 0, 0 0, 0 0 M0 0 C0 0, 0 0, 0 0 M0 0 C0 0, 0 0, 0 0 M0 0 C0 0, 0 0, 0 0" stroke="#00000000" stroke-width="2" fill="none"/></g></g><mask/><g stroke-linecap="round"><g transform="translate(85.37568546986313 32.18272799388319) rotate(0 -27.474969000695637 27.45719894208912)" fill-rule="evenodd"><path d="M0 0 L-54.92 0 L-54.92 0 L-58.16 1.34 L-59.51 4.57 L-59.51 50.35 L-59.51 50.35 L-58.16 53.58 L-54.92 54.91 L-0.01 54.91 L-0.01 54.91 L3.22 53.58 L4.56 50.35 L4.56 4.57 L4.56 4.57 L3.22 1.34 L0 0 L0 0" stroke="none" stroke-width="0" fill="#4dabf7" fill-rule="evenodd"/><path d="M0 0 C-20.82 0, -41.64 0, -54.92 0 M0 0 C-12.46 0, -24.92 0, -54.92 0 M-54.92 0 C-54.92 0, -54.92 0, -54.92 0 M-54.92 0 C-54.92 0, -54.92 0, -54.92 0 M-54.92 0 C-55.91 0.41, -56.89 0.82, -58.16 1.34 M-54.92 0 C-56.09 0.48, -57.25 0.96, -58.16 1.34 M-58.16 1.34 C-58.6 2.39, -59.04 3.43, -59.51 4.57 M-58.16 1.34 C-58.68 2.57, -59.19 3.8, -59.51 4.57 M-59.51 4.57 C-59.51 19.7, -59.51 34.83, -59.51 50.35 M-59.51 4.57 C-59.51 22.15, -59.51 39.73, -59.51 50.35 M-59.51 50.35 C-59.51 50.35, -59.51 50.35, -59.51 50.35 M-59.51 50.35 C-59.51 50.35, -59.51 50.35, -59.51 50.35 M-59.51 50.35 C-59.18 51.14, -58.85 51.93, -58.16 53.58 M-59.51 50.35 C-59.07 51.41, -58.62 52.47, -58.16 53.58 M-58.16 53.58 C-57.3 53.93, -56.45 54.28, -54.92 54.91 M-58.16 53.58 C-56.88 54.1, -55.6 54.63, -54.92 54.91 M-54.92 54.91 C-41.96 54.91, -28.99 54.91, -0.01 54.91 M-54.92 54.91 C-41.38 54.91, -27.85 54.91, -0.01 54.91 M-0.01 54.91 C-0.01 54.91, -0.01 54.91, -0.01 54.91 M-0.01 54.91 C-0.01 54.91, -0.01 54.91, -0.01 54.91 M-0.01 54.91 C1.24 54.39, 2.5 53.88, 3.22 53.58 M-0.01 54.91 C1.02 54.49, 2.05 54.06, 3.22 53.58 M3.22 53.58 C3.63 52.6, 4.03 51.62, 4.56 50.35 M3.22 53.58 C3.56 52.76, 3.9 51.94, 4.56 50.35 M4.56 50.35 C4.56 32.75, 4.56 15.14, 4.56 4.57 M4.56 50.35 C4.56 34.16, 4.56 17.97, 4.56 4.57 M4.56 4.57 C4.56 4.57, 4.56 4.57, 4.56 4.57 M4.56 4.57 C4.56 4.57, 4.56 4.57, 4.56 4.57 M4.56 4.57 C4.28 3.89, 4 3.22, 3.22 1.34 M4.56 4.57 C4.18 3.65, 3.8 2.74, 3.22 1.34 M3.22 1.34 C2.55 1.06, 1.87 0.78, 0 0 M3.22 1.34 C2.21 0.92, 1.2 0.5, 0 0 M0 0 C0 0, 0 0, 0 0 M0 0 C0 0, 0 0, 0 0 M0 0 C0 0, 0 0, 0 0 M0 0 C0 0, 0 0, 0 0" stroke="#00000000" stroke-width="2" fill="none"/></g></g><mask/><g stroke-linecap="round"><g transform="translate(47.63976570747809 35.61783939098905) rotate(0 -0.008884676288516857 2.2920484411265534)" fill-rule="evenodd"><path d="M0 0 L0 0 L1.61 0.67 L2.27 2.29 L1.61 3.92 L0 4.58 L-1.62 3.92 L-2.29 2.29 L-1.62 0.67 L0 0 L0 0" stroke="none" stroke-width="0" fill="#FFFFFF" fill-rule="evenodd"/><path d="M0 0 C0 0, 0 0, 0 0 M0 0 C0 0, 0 0, 0 0 M0 0 C0.51 0.21, 1.01 0.42, 1.61 0.67 M0 0 C0.34 0.14, 0.68 0.28, 1.61 0.67 M1.61 0.67 C1.86 1.28, 2.11 1.89, 2.27 2.29 M1.61 0.67 C1.77 1.06, 1.93 1.44, 2.27 2.29 M2.27 2.29 C2.13 2.64, 1.99 2.99, 1.61 3.92 M2.27 2.29 C2.12 2.67, 1.96 3.06, 1.61 3.92 M1.61 3.92 C1.15 4.11, 0.69 4.3, 0 4.58 M1.61 3.92 C1.07 4.14, 0.52 4.37, 0 4.58 M0 4.58 C-0.65 4.32, -1.29 4.05, -1.62 3.92 M0 4.58 C-0.56 4.35, -1.12 4.12, -1.62 3.92 M-1.62 3.92 C-1.8 3.48, -1.98 3.04, -2.29 2.29 M-1.62 3.92 C-1.78 3.53, -1.94 3.15, -2.29 2.29 M-2.29 2.29 C-2.08 1.79, -1.87 1.28, -1.62 0.67 M-2.29 2.29 C-2.15 1.95, -2.01 1.61, -1.62 0.67 M-1.62 0.67 C-1 0.41, -0.39 0.16, 0 0 M-1.62 0.67 C-1.29 0.53, -0.96 0.4, 0 0 M0 0 C0 0, 0 0, 0 0 M0 0 C0 0, 0 0, 0 0 M0 0 C0 0, 0 0, 0 0 M0 0 C0 0, 0 0, 0 0" stroke="#00000000" stroke-width="2" fill="none"/></g></g><mask/><g stroke-linecap="round"><g transform="translate(40.63332297733632 35.61783939098905) rotate(0 0 2.2920484411265534)" fill-rule="evenodd"><path d="M0 0 L0 0 L1.62 0.67 L2.29 2.29 L1.62 3.92 L0 4.58 L-1.62 3.92 L-2.29 2.29 L-1.62 0.67 L0 0 L0 0" stroke="none" stroke-width="0" fill="#FFFFFF" fill-rule="evenodd"/><path d="M0 0 C0 0, 0 0, 0 0 M0 0 C0 0, 0 0, 0 0 M0 0 C0.48 0.2, 0.96 0.4, 1.62 0.67 M0 0 C0.6 0.25, 1.2 0.5, 1.62 0.67 M1.62 0.67 C1.88 1.29, 2.14 1.92, 2.29 2.29 M1.62 0.67 C1.88 1.28, 2.13 1.89, 2.29 2.29 M2.29 2.29 C2.08 2.81, 1.86 3.33, 1.62 3.92 M2.29 2.29 C2.1 2.76, 1.9 3.24, 1.62 3.92 M1.62 3.92 C1.02 4.17, 0.41 4.41, 0 4.58 M1.62 3.92 C1.07 4.14, 0.52 4.37, 0 4.58 M0 4.58 C-0.63 4.33, -1.25 4.07, -1.62 3.92 M0 4.58 C-0.58 4.34, -1.16 4.1, -1.62 3.92 M-1.62 3.92 C-1.89 3.27, -2.16 2.62, -2.29 2.29 M-1.62 3.92 C-1.76 3.58, -1.9 3.24, -2.29 2.29 M-2.29 2.29 C-2.05 1.7, -1.8 1.12, -1.62 0.67 M-2.29 2.29 C-2.08 1.78, -1.87 1.28, -1.62 0.67 M-1.62 0.67 C-1.03 0.42, -0.44 0.18, 0 0 M-1.62 0.67 C-1.15 0.47, -0.68 0.28, 0 0 M0 0 C0 0, 0 0, 0 0 M0 0 C0 0, 0 0, 0 0 M0 0 C0 0, 0 0, 0 0 M0 0 C0 0, 0 0, 0 0" stroke="#00000000" stroke-width="2" fill="none"/></g></g><mask/><g stroke-linecap="round"><g transform="translate(33.76902306530701 35.61783939098905) rotate(0 -0.002961264583746015 2.2920484411265534)" fill-rule="evenodd"><path d="M0 0 L0 0 L1.61 0.67 L2.28 2.29 L1.61 3.92 L0 4.58 L-1.62 3.92 L-2.29 2.29 L-1.61 0.67 L0 0 L0 0" stroke="none" stroke-width="0" fill="#FFFFFF" fill-rule="evenodd"/><path d="M0 0 C0 0, 0 0, 0 0 M0 0 C0 0, 0 0, 0 0 M0 0 C0.56 0.23, 1.12 0.47, 1.61 0.67 M0 0 C0.38 0.16, 0.75 0.31, 1.61 0.67 M1.61 0.67 C1.79 1.1, 1.96 1.52, 2.28 2.29 M1.61 0.67 C1.86 1.27, 2.1 1.86, 2.28 2.29 M2.28 2.29 C2.06 2.81, 1.85 3.33, 1.61 3.92 M2.28 2.29 C2.03 2.9, 1.78 3.51, 1.61 3.92 M1.61 3.92 C1.15 4.11, 0.68 4.3, 0 4.58 M1.61 3.92 C1.05 4.15, 0.5 4.38, 0 4.58 M0 4.58 C-0.33 4.45, -0.66 4.31, -1.62 3.92 M0 4.58 C-0.36 4.43, -0.73 4.28, -1.62 3.92 M-1.62 3.92 C-1.82 3.42, -2.03 2.92, -2.29 2.29 M-1.62 3.92 C-1.84 3.36, -2.07 2.81, -2.29 2.29 M-2.29 2.29 C-2.11 1.88, -1.94 1.46, -1.61 0.67 M-2.29 2.29 C-2.14 1.93, -1.99 1.57, -1.61 0.67 M-1.61 0.67 C-1.22 0.5, -0.82 0.34, 0 0 M-1.61 0.67 C-1.07 0.44, -0.53 0.22, 0 0 M0 0 C0 0, 0 0, 0 0 M0 0 C0 0, 0 0, 0 0 M0 0 C0 0, 0 0, 0 0 M0 0 C0 0, 0 0, 0 0" stroke="#00000000" stroke-width="2" fill="none"/></g></g><mask/><g stroke-linecap="round"><g transform="translate(85.26015672880294 82.53671699438996) rotate(0 -27.460161089210033 -19.429105986441414)" fill-rule="evenodd"><path d="M0 0 L-54.92 0 L-54.92 -38.86 L-0.01 -38.86 L-0.01 0 L0 0 L0 0" stroke="none" stroke-width="0" fill="#FFFFFF" fill-rule="evenodd"/><path d="M0 0 C-13.18 0, -26.37 0, -54.92 0 M0 0 C-12.8 0, -25.6 0, -54.92 0 M-54.92 0 C-54.92 -10.03, -54.92 -20.05, -54.92 -38.86 M-54.92 0 C-54.92 -8.67, -54.92 -17.33, -54.92 -38.86 M-54.92 -38.86 C-37.26 -38.86, -19.6 -38.86, -0.01 -38.86 M-54.92 -38.86 C-32.97 -38.86, -11.03 -38.86, -0.01 -38.86 M-0.01 -38.86 C-0.01 -26.92, -0.01 -14.98, -0.01 0 M-0.01 -38.86 C-0.01 -26.04, -0.01 -13.22, -0.01 0 M-0.01 0 C0 0, 0 0, 0 0 M-0.01 0 C0 0, 0 0, 0 0 M0 0 C0 0, 0 0, 0 0 M0 0 C0 0, 0 0, 0 0 M0 0 C0 0, 0 0, 0 0 M0 0 C0 0, 0 0, 0 0" stroke="#00000000" stroke-width="2" fill="none"/></g></g><mask/><g stroke-linecap="round"><g transform="translate(85.26015672880294 39.10033102143643) rotate(0 -16.020648618200767 -1.1460240440559346)" fill-rule="evenodd"><path d="M0 0 L-32.04 0 L-32.04 -2.29 L0 -2.29 L0 0 L0 0" stroke="none" stroke-width="0" fill="#FFFFFF" fill-rule="evenodd"/><path d="M0 0 C-10.28 0, -20.57 0, -32.04 0 M0 0 C-8.43 0, -16.86 0, -32.04 0 M-32.04 0 C-32.04 -0.64, -32.04 -1.27, -32.04 -2.29 M-32.04 0 C-32.04 -0.86, -32.04 -1.73, -32.04 -2.29 M-32.04 -2.29 C-20.54 -2.29, -9.04 -2.29, 0 -2.29 M-32.04 -2.29 C-22.47 -2.29, -12.89 -2.29, 0 -2.29 M0 -2.29 C0 -1.43, 0 -0.56, 0 0 M0 -2.29 C0 -1.44, 0 -0.59, 0 0 M0 0 C0 0, 0 0, 0 0 M0 0 C0 0, 0 0, 0 0 M0 0 C0 0, 0 0, 0 0 M0 0 C0 0, 0 0, 0 0" stroke="#00000000" stroke-width="2" fill="none"/></g></g><mask/><g stroke-linecap="round"><g transform="translate(101.18232187122021 53.032941340817615) rotate(0 -27.474969000695637 27.45719894208912)" fill-rule="evenodd"><path d="M0 0 L-54.92 0 L-54.92 0 L-58.16 1.34 L-59.51 4.57 L-59.51 50.35 L-59.51 50.35 L-58.16 53.58 L-54.92 54.91 L-0.01 54.91 L-0.01 54.91 L3.22 53.58 L4.56 50.35 L4.56 4.57 L4.56 4.57 L3.22 1.34 L0 0 L0 0" stroke="none" stroke-width="0" fill="#f783ac" fill-rule="evenodd"/><path d="M0 0 C-15.27 0, -30.54 0, -54.92 0 M0 0 C-19.59 0, -39.17 0, -54.92 0 M-54.92 0 C-54.92 0, -54.92 0, -54.92 0 M-54.92 0 C-54.92 0, -54.92 0, -54.92 0 M-54.92 0 C-55.95 0.42, -56.97 0.85, -58.16 1.34 M-54.92 0 C-56.13 0.5, -57.33 1, -58.16 1.34 M-58.16 1.34 C-58.52 2.2, -58.88 3.05, -59.51 4.57 M-58.16 1.34 C-58.45 2.03, -58.74 2.73, -59.51 4.57 M-59.51 4.57 C-59.51 15.83, -59.51 27.1, -59.51 50.35 M-59.51 4.57 C-59.51 17.43, -59.51 30.3, -59.51 50.35 M-59.51 50.35 C-59.51 50.35, -59.51 50.35, -59.51 50.35 M-59.51 50.35 C-59.51 50.35, -59.51 50.35, -59.51 50.35 M-59.51 50.35 C-59.14 51.23, -58.77 52.12, -58.16 53.58 M-59.51 50.35 C-59 51.58, -58.48 52.81, -58.16 53.58 M-58.16 53.58 C-57.05 54.03, -55.95 54.49, -54.92 54.91 M-58.16 53.58 C-57.41 53.89, -56.65 54.2, -54.92 54.91 M-54.92 54.91 C-42.99 54.91, -31.05 54.91, -0.01 54.91 M-54.92 54.91 C-43.48 54.91, -32.04 54.91, -0.01 54.91 M-0.01 54.91 C-0.01 54.91, -0.01 54.91, -0.01 54.91 M-0.01 54.91 C-0.01 54.91, -0.01 54.91, -0.01 54.91 M-0.01 54.91 C0.96 54.51, 1.93 54.11, 3.22 53.58 M-0.01 54.91 C1.1 54.46, 2.21 54, 3.22 53.58 M3.22 53.58 C3.73 52.34, 4.24 51.11, 4.56 50.35 M3.22 53.58 C3.74 52.31, 4.27 51.05, 4.56 50.35 M4.56 50.35 C4.56 33.93, 4.56 17.52, 4.56 4.57 M4.56 50.35 C4.56 41.05, 4.56 31.76, 4.56 4.57 M4.56 4.57 C4.56 4.57, 4.56 4.57, 4.56 4.57 M4.56 4.57 C4.56 4.57, 4.56 4.57, 4.56 4.57 M4.56 4.57 C4.24 3.8, 3.93 3.04, 3.22 1.34 M4.56 4.57 C4.23 3.76, 3.9 2.96, 3.22 1.34 M3.22 1.34 C2.36 0.98, 1.5 0.63, 0 0 M3.22 1.34 C2.44 1.02, 1.67 0.69, 0 0 M0 0 C0 0, 0 0, 0 0 M0 0 C0 0, 0 0, 0 0 M0 0 C0 0, 0 0, 0 0 M0 0 C0 0, 0 0, 0 0" stroke="#00000000" stroke-width="2" fill="none"/></g></g><mask/><g stroke-linecap="round"><g transform="translate(63.44640210883472 56.4680527379237) rotate(0 -0.008884676288516857 2.2920484411265534)" fill-rule="evenodd"><path d="M0 0 L0 0 L1.61 0.67 L2.27 2.29 L1.61 3.92 L0 4.58 L-1.62 3.92 L-2.29 2.29 L-1.62 0.67 L0 0 L0 0" stroke="none" stroke-width="0" fill="#FFFFFF" fill-rule="evenodd"/><path d="M0 0 C0 0, 0 0, 0 0 M0 0 C0 0, 0 0, 0 0 M0 0 C0.53 0.22, 1.06 0.44, 1.61 0.67 M0 0 C0.43 0.18, 0.87 0.36, 1.61 0.67 M1.61 0.67 C1.77 1.04, 1.92 1.41, 2.27 2.29 M1.61 0.67 C1.8 1.12, 1.98 1.57, 2.27 2.29 M2.27 2.29 C2.1 2.73, 1.92 3.17, 1.61 3.92 M2.27 2.29 C2.13 2.65, 1.98 3.01, 1.61 3.92 M1.61 3.92 C1.04 4.15, 0.47 4.39, 0 4.58 M1.61 3.92 C1.17 4.1, 0.73 4.28, 0 4.58 M0 4.58 C-0.36 4.44, -0.71 4.29, -1.62 3.92 M0 4.58 C-0.46 4.39, -0.92 4.2, -1.62 3.92 M-1.62 3.92 C-1.79 3.5, -1.97 3.08, -2.29 2.29 M-1.62 3.92 C-1.79 3.49, -1.97 3.07, -2.29 2.29 M-2.29 2.29 C-2.06 1.73, -1.82 1.16, -1.62 0.67 M-2.29 2.29 C-2.14 1.93, -1.99 1.57, -1.62 0.67 M-1.62 0.67 C-1.14 0.47, -0.66 0.27, 0 0 M-1.62 0.67 C-1.16 0.48, -0.69 0.29, 0 0 M0 0 C0 0, 0 0, 0 0 M0 0 C0 0, 0 0, 0 0 M0 0 C0 0, 0 0, 0 0 M0 0 C0 0, 0 0, 0 0" stroke="#00000000" stroke-width="2" fill="none"/></g></g><mask/><g stroke-linecap="round"><g transform="translate(56.43995937869295 56.4680527379237) rotate(0 0 2.2920484411265534)" fill-rule="evenodd"><path d="M0 0 L0 0 L1.62 0.67 L2.29 2.29 L1.62 3.92 L0 4.58 L-1.62 3.92 L-2.29 2.29 L-1.62 0.67 L0 0 L0 0" stroke="none" stroke-width="0" fill="#FFFFFF" fill-rule="evenodd"/><path d="M0 0 C0 0, 0 0, 0 0 M0 0 C0 0, 0 0, 0 0 M0 0 C0.54 0.22, 1.09 0.45, 1.62 0.67 M0 0 C0.36 0.15, 0.73 0.3, 1.62 0.67 M1.62 0.67 C1.76 1.01, 1.91 1.35, 2.29 2.29 M1.62 0.67 C1.81 1.11, 1.99 1.55, 2.29 2.29 M2.29 2.29 C2.06 2.85, 1.84 3.4, 1.62 3.92 M2.29 2.29 C2.03 2.93, 1.77 3.57, 1.62 3.92 M1.62 3.92 C1.22 4.08, 0.81 4.25, 0 4.58 M1.62 3.92 C1.2 4.09, 0.78 4.26, 0 4.58 M0 4.58 C-0.32 4.45, -0.65 4.32, -1.62 3.92 M0 4.58 C-0.41 4.42, -0.82 4.25, -1.62 3.92 M-1.62 3.92 C-1.79 3.49, -1.97 3.06, -2.29 2.29 M-1.62 3.92 C-1.81 3.45, -2 2.99, -2.29 2.29 M-2.29 2.29 C-2.03 1.67, -1.77 1.05, -1.62 0.67 M-2.29 2.29 C-2.13 1.91, -1.97 1.52, -1.62 0.67 M-1.62 0.67 C-1.21 0.5, -0.81 0.33, 0 0 M-1.62 0.67 C-1 0.41, -0.38 0.16, 0 0 M0 0 C0 0, 0 0, 0 0 M0 0 C0 0, 0 0, 0 0 M0 0 C0 0, 0 0, 0 0 M0 0 C0 0, 0 0, 0 0" stroke="#00000000" stroke-width="2" fill="none"/></g></g><mask/><g stroke-linecap="round"><g transform="translate(49.57565946666364 56.4680527379237) rotate(0 -0.002961264583746015 2.2920484411265534)" fill-rule="evenodd"><path d="M0 0 L0 0 L1.61 0.67 L2.28 2.29 L1.61 3.92 L0 4.58 L-1.62 3.92 L-2.29 2.29 L-1.61 0.67 L0 0 L0 0" stroke="none" stroke-width="0" fill="#FFFFFF" fill-rule="evenodd"/><path d="M0 0 C0 0, 0 0, 0 0 M0 0 C0 0, 0 0, 0 0 M0 0 C0.36 0.15, 0.72 0.3, 1.61 0.67 M0 0 C0.33 0.14, 0.66 0.27, 1.61 0.67 M1.61 0.67 C1.76 1.04, 1.92 1.41, 2.28 2.29 M1.61 0.67 C1.84 1.22, 2.06 1.77, 2.28 2.29 M2.28 2.29 C2.13 2.65, 1.98 3.01, 1.61 3.92 M2.28 2.29 C2.1 2.72, 1.93 3.14, 1.61 3.92 M1.61 3.92 C1.28 4.05, 0.95 4.19, 0 4.58 M1.61 3.92 C1.02 4.16, 0.42 4.41, 0 4.58 M0 4.58 C-0.53 4.36, -1.06 4.15, -1.62 3.92 M0 4.58 C-0.5 4.38, -1 4.17, -1.62 3.92 M-1.62 3.92 C-1.83 3.4, -2.04 2.89, -2.29 2.29 M-1.62 3.92 C-1.8 3.47, -1.99 3.02, -2.29 2.29 M-2.29 2.29 C-2.08 1.8, -1.88 1.31, -1.61 0.67 M-2.29 2.29 C-2.12 1.89, -1.95 1.48, -1.61 0.67 M-1.61 0.67 C-1.19 0.49, -0.77 0.32, 0 0 M-1.61 0.67 C-1.14 0.47, -0.68 0.28, 0 0 M0 0 C0 0, 0 0, 0 0 M0 0 C0 0, 0 0, 0 0 M0 0 C0 0, 0 0, 0 0 M0 0 C0 0, 0 0, 0 0" stroke="#00000000" stroke-width="2" fill="none"/></g></g><mask/><g stroke-linecap="round"><g transform="translate(101.06679313016002 103.38693034132439) rotate(0 -27.460161089210033 -19.429105986441414)" fill-rule="evenodd"><path d="M0 0 L-54.92 0 L-54.92 -38.86 L-0.01 -38.86 L-0.01 0 L0 0 L0 0" stroke="none" stroke-width="0" fill="#FFFFFF" fill-rule="evenodd"/><path d="M0 0 C-19.1 0, -38.2 0, -54.92 0 M0 0 C-19.3 0, -38.6 0, -54.92 0 M-54.92 0 C-54.92 -11.9, -54.92 -23.81, -54.92 -38.86 M-54.92 0 C-54.92 -12.41, -54.92 -24.82, -54.92 -38.86 M-54.92 -38.86 C-42.55 -38.86, -30.18 -38.86, -0.01 -38.86 M-54.92 -38.86 C-33.86 -38.86, -12.81 -38.86, -0.01 -38.86 M-0.01 -38.86 C-0.01 -27.5, -0.01 -16.15, -0.01 0 M-0.01 -38.86 C-0.01 -29.07, -0.01 -19.29, -0.01 0 M-0.01 0 C0 0, 0 0, 0 0 M-0.01 0 C0 0, 0 0, 0 0 M0 0 C0 0, 0 0, 0 0 M0 0 C0 0, 0 0, 0 0 M0 0 C0 0, 0 0, 0 0 M0 0 C0 0, 0 0, 0 0" stroke="#00000000" stroke-width="2" fill="none"/></g></g><mask/><g stroke-linecap="round"><g transform="translate(101.06679313016002 59.950544368370856) rotate(0 -16.020648618200767 -1.1460240440559346)" fill-rule="evenodd"><path d="M0 0 L-32.04 0 L-32.04 -2.29 L0 -2.29 L0 0 L0 0" stroke="none" stroke-width="0" fill="#FFFFFF" fill-rule="evenodd"/><path d="M0 0 C-10.13 0, -20.26 0, -32.04 0 M0 0 C-7.42 0, -14.84 0, -32.04 0 M-32.04 0 C-32.04 -0.58, -32.04 -1.15, -32.04 -2.29 M-32.04 0 C-32.04 -0.57, -32.04 -1.15, -32.04 -2.29 M-32.04 -2.29 C-23.28 -2.29, -14.51 -2.29, 0 -2.29 M-32.04 -2.29 C-21.55 -2.29, -11.06 -2.29, 0 -2.29 M0 -2.29 C0 -1.43, 0 -0.57, 0 0 M0 -2.29 C0 -1.68, 0 -1.07, 0 0 M0 0 C0 0, 0 0, 0 0 M0 0 C0 0, 0 0, 0 0 M0 0 C0 0, 0 0, 0 0 M0 0 C0 0, 0 0, 0 0" stroke="#00000000" stroke-width="2" fill="none"/></g></g><mask/></svg>