<?xml version="1.0" encoding="iso-8859-1"?>
<!-- Uploaded to: SVG Repo, www.svgrepo.com, Generator: SVG Repo Mixer Tools -->
<svg height="16" width="16" version="1.1" id="Capa_1" xmlns="http://www.w3.org/2000/svg"
     viewBox="0 0 10.818 10.818" xml:space="preserve">
<defs>
    <linearGradient id="windowGradient" x1="0%" y1="0%" x2="100%" y2="100%">
        <stop offset="0%" style="stop-color:indigo" />
        <stop offset="33%" style="stop-color:violet" />
        <stop offset="66%" style="stop-color:indigo" />
        <stop offset="100%" style="stop-color:violet" />
    </linearGradient>
    <linearGradient id="rainbow" x1="0%" y1="0%" x2="100%" y2="100%">
      <stop offset="0%" style="stop-color:red" />
        <stop offset="16%" style="stop-color:orange" />
        <stop offset="32%" style="stop-color:yellow" />
        <stop offset="48%" style="stop-color:green" />
        <stop offset="64%" style="stop-color:blue" />
        <stop offset="80%" style="stop-color:indigo" />
        <stop offset="100%" style="stop-color:violet" />
    </linearGradient>
</defs>
<g>
	<path style="fill:url(#windowGradient);" d="M10.048,0.773H0.775C0.349,0.773,0,1.119,0,1.544v7.73c0,0.426,0.349,0.771,0.775,0.771h9.272
		c0.424,0,0.771-0.346,0.771-0.771v-7.73C10.818,1.119,10.472,0.773,10.048,0.773z M3.696,1.353c0.215,0,0.384,0.172,0.384,0.387
		S3.911,2.127,3.696,2.127c-0.213,0-0.387-0.172-0.387-0.387S3.483,1.353,3.696,1.353z M2.513,1.353C2.728,1.353,2.9,1.525,2.9,1.74
		S2.728,2.127,2.513,2.127c-0.212,0-0.387-0.172-0.387-0.387S2.301,1.353,2.513,1.353z M1.354,1.353
		c0.211,0,0.385,0.172,0.385,0.387S1.565,2.127,1.354,2.127c-0.213,0-0.386-0.172-0.386-0.387S1.142,1.353,1.354,1.353z
		 M10.048,9.275H0.775V2.714h9.272v6.561H10.048z M10.048,1.941h-5.41V1.554h5.41V1.941z"/>
</g>
</svg>